<mxfile host="app.diagrams.net" modified="2023-08-22T22:41:58.792Z" agent="Mozilla/5.0 (Macintosh; Intel Mac OS X 10_15_7) AppleWebKit/605.1.15 (KHTML, like Gecko) Version/16.5 Safari/605.1.15" etag="7QuwXvHLc4o_TRjtFtSM" version="21.6.9" type="device">
  <diagram name="Page-1" id="bL2ti3FS8Qn9a3gcwUtS">
    <mxGraphModel dx="3772" dy="1072" grid="1" gridSize="10" guides="1" tooltips="1" connect="1" arrows="1" fold="1" page="1" pageScale="1" pageWidth="850" pageHeight="1100" math="0" shadow="0">
      <root>
        <mxCell id="0" />
        <mxCell id="1" parent="0" />
        <mxCell id="nyXX6pM8MfZBQfrMpn8g-9" style="edgeStyle=orthogonalEdgeStyle;rounded=0;orthogonalLoop=1;jettySize=auto;html=1;exitX=1;exitY=0.75;exitDx=0;exitDy=0;entryX=0;entryY=0.25;entryDx=0;entryDy=0;shape=link;" edge="1" parent="1" source="nyXX6pM8MfZBQfrMpn8g-10" target="nyXX6pM8MfZBQfrMpn8g-5">
          <mxGeometry relative="1" as="geometry" />
        </mxCell>
        <mxCell id="nyXX6pM8MfZBQfrMpn8g-15" style="edgeStyle=orthogonalEdgeStyle;rounded=0;orthogonalLoop=1;jettySize=auto;html=1;exitX=1;exitY=0.5;exitDx=0;exitDy=0;entryX=0;entryY=0.5;entryDx=0;entryDy=0;" edge="1" parent="1" source="nyXX6pM8MfZBQfrMpn8g-17" target="nyXX6pM8MfZBQfrMpn8g-16">
          <mxGeometry relative="1" as="geometry">
            <mxPoint x="170" y="690" as="targetPoint" />
          </mxGeometry>
        </mxCell>
        <mxCell id="nyXX6pM8MfZBQfrMpn8g-1" value="" style="rounded=1;whiteSpace=wrap;html=1;align=left;" vertex="1" parent="1">
          <mxGeometry x="-285" y="445" width="400" height="170" as="geometry" />
        </mxCell>
        <mxCell id="nyXX6pM8MfZBQfrMpn8g-2" value="&lt;div style=&quot;font-family: Menlo, Monaco, &amp;quot;Courier New&amp;quot;, monospace; line-height: 18px;&quot;&gt;&lt;span style=&quot;background-color: rgb(255, 255, 255);&quot;&gt;void function(char* mal_input){&lt;/span&gt;&lt;/div&gt;&lt;div style=&quot;font-family: Menlo, Monaco, &amp;quot;Courier New&amp;quot;, monospace; line-height: 18px;&quot;&gt;&lt;span style=&quot;background-color: rgb(255, 255, 255);&quot;&gt;&lt;span style=&quot;white-space: pre;&quot;&gt;&#x9;char[64] buffer;&lt;/span&gt;&lt;br&gt;&lt;/span&gt;&lt;/div&gt;&lt;div style=&quot;line-height: 18px;&quot;&gt;&lt;span style=&quot;background-color: rgb(255, 255, 255);&quot;&gt;&lt;font face=&quot;Menlo, Monaco, Courier New, monospace&quot;&gt;&lt;span style=&quot;white-space: pre;&quot;&gt;&#x9;for(int i=0;i&amp;lt;strlen(mal_input);i++){&lt;/span&gt;&lt;/font&gt;&lt;/span&gt;&lt;/div&gt;&lt;div style=&quot;line-height: 18px;&quot;&gt;&lt;span style=&quot;background-color: rgb(255, 255, 255);&quot;&gt;&lt;font face=&quot;Menlo, Monaco, Courier New, monospace&quot;&gt;&lt;span style=&quot;white-space: pre;&quot;&gt;&lt;span style=&quot;white-space: pre;&quot;&gt;&#x9;&lt;span style=&quot;white-space: pre;&quot;&gt;&#x9;&lt;font color=&quot;#ff3333&quot;&gt;//the buffer was overflown&lt;/font&gt;&lt;/span&gt;&lt;/span&gt;&lt;br&gt;&lt;/span&gt;&lt;/font&gt;&lt;/span&gt;&lt;/div&gt;&lt;div style=&quot;line-height: 18px;&quot;&gt;&lt;span style=&quot;background-color: rgb(255, 255, 255);&quot;&gt;&lt;font face=&quot;Menlo, Monaco, Courier New, monospace&quot;&gt;&lt;span style=&quot;white-space: pre;&quot;&gt;&lt;span style=&quot;white-space: pre;&quot;&gt;&lt;span style=&quot;white-space: pre;&quot;&gt;&lt;font color=&quot;#ff3333&quot;&gt;&lt;span style=&quot;white-space: pre;&quot;&gt;&#x9;&lt;span style=&quot;white-space: pre;&quot;&gt;&#x9;  stack address re-written&lt;/span&gt;&lt;/span&gt;&lt;br&gt;&lt;/font&gt;&lt;/span&gt;&lt;/span&gt;&lt;/span&gt;&lt;/font&gt;&lt;/span&gt;&lt;/div&gt;&lt;div style=&quot;line-height: 18px;&quot;&gt;&lt;span style=&quot;background-color: rgb(255, 255, 255);&quot;&gt;&lt;font face=&quot;Menlo, Monaco, Courier New, monospace&quot;&gt;&#x9;&#x9;&lt;span style=&quot;white-space: pre;&quot;&gt;&#x9;&lt;span style=&quot;white-space: pre;&quot;&gt;&#x9;&lt;/span&gt;buffer[i]=mal_input[i];&lt;/span&gt;&lt;/font&gt;&lt;/span&gt;&lt;/div&gt;&lt;div style=&quot;line-height: 18px;&quot;&gt;&lt;span style=&quot;white-space: pre; font-family: Menlo, Monaco, &amp;quot;Courier New&amp;quot;, monospace;&quot;&gt;&#x9;&lt;/span&gt;&lt;span style=&quot;white-space: pre; font-family: Menlo, Monaco, &amp;quot;Courier New&amp;quot;, monospace; background-color: rgb(255, 255, 255);&quot;&gt;}&lt;/span&gt;&lt;/div&gt;&lt;div style=&quot;line-height: 18px;&quot;&gt;&lt;span style=&quot;white-space: pre; font-family: Menlo, Monaco, &amp;quot;Courier New&amp;quot;, monospace; background-color: rgb(255, 255, 255);&quot;&gt;&lt;span style=&quot;white-space: pre;&quot;&gt;&#x9;return;&lt;/span&gt;&lt;br&gt;&lt;/span&gt;&lt;/div&gt;&lt;div style=&quot;font-family: Menlo, Monaco, &amp;quot;Courier New&amp;quot;, monospace; line-height: 18px;&quot;&gt;&lt;span style=&quot;background-color: rgb(255, 255, 255);&quot;&gt;}&lt;/span&gt;&lt;/div&gt;" style="text;html=1;strokeColor=none;fillColor=none;align=left;verticalAlign=middle;whiteSpace=wrap;rounded=0;" vertex="1" parent="1">
          <mxGeometry x="-260" y="460" width="350" height="140" as="geometry" />
        </mxCell>
        <mxCell id="nyXX6pM8MfZBQfrMpn8g-7" style="edgeStyle=orthogonalEdgeStyle;rounded=0;orthogonalLoop=1;jettySize=auto;html=1;exitX=0;exitY=0.75;exitDx=0;exitDy=0;entryX=0;entryY=0.5;entryDx=0;entryDy=0;" edge="1" parent="1" source="nyXX6pM8MfZBQfrMpn8g-5" target="nyXX6pM8MfZBQfrMpn8g-6">
          <mxGeometry relative="1" as="geometry" />
        </mxCell>
        <mxCell id="nyXX6pM8MfZBQfrMpn8g-5" value="&lt;blockquote style=&quot;margin: 0 0 0 40px; border: none; padding: 0px;&quot;&gt;&lt;div style=&quot;border-color: var(--border-color); font-family: Menlo, Monaco, &amp;quot;Courier New&amp;quot;, monospace; line-height: 18px;&quot;&gt;&lt;span style=&quot;background-color: rgb(255, 255, 255);&quot;&gt;gadget1:&lt;/span&gt;&lt;/div&gt;&lt;div style=&quot;border-color: var(--border-color); line-height: 18px;&quot;&gt;&lt;div style=&quot;font-family: Menlo, Monaco, &amp;quot;Courier New&amp;quot;, monospace; line-height: 18px;&quot;&gt;&lt;div&gt;&lt;span style=&quot;background-color: rgb(255, 255, 255);&quot;&gt;movw r6, r20&lt;/span&gt;&lt;/div&gt;&lt;div&gt;&lt;span style=&quot;background-color: rgb(255, 255, 255);&quot;&gt;sub  r6, r24&lt;/span&gt;&lt;/div&gt;&lt;div&gt;&lt;span style=&quot;background-color: rgb(255, 255, 255);&quot;&gt;sbc  r7, r25&lt;/span&gt;&lt;/div&gt;&lt;div&gt;&lt;span style=&quot;background-color: rgb(255, 255, 255);&quot;&gt;movw r4, r6&lt;/span&gt;&lt;/div&gt;&lt;div&gt;&lt;span style=&quot;background-color: rgb(255, 255, 255);&quot;&gt;ldi  r17, 0xFF   ; 255&lt;/span&gt;&lt;/div&gt;&lt;div&gt;&lt;span style=&quot;background-color: rgb(255, 255, 255);&quot;&gt;sub  r4, r17&lt;/span&gt;&lt;/div&gt;&lt;div&gt;&lt;span style=&quot;background-color: rgb(255, 255, 255);&quot;&gt;sbc  r5, r17&lt;/span&gt;&lt;/div&gt;&lt;div&gt;&lt;span style=&quot;background-color: rgb(255, 255, 255);&quot;&gt;jmp gadget2&amp;nbsp;&lt;font color=&quot;#ff3333&quot;&gt;//return to next gadget&lt;/font&gt;&lt;/span&gt;&lt;/div&gt;&lt;/div&gt;&lt;/div&gt;&lt;/blockquote&gt;" style="rounded=1;whiteSpace=wrap;html=1;align=left;" vertex="1" parent="1">
          <mxGeometry x="200" y="260" width="330" height="170" as="geometry" />
        </mxCell>
        <mxCell id="nyXX6pM8MfZBQfrMpn8g-6" value="&lt;blockquote style=&quot;margin: 0 0 0 40px; border: none; padding: 0px;&quot;&gt;&lt;div style=&quot;border-color: var(--border-color); font-family: Menlo, Monaco, &amp;quot;Courier New&amp;quot;, monospace; line-height: 18px;&quot;&gt;&lt;span style=&quot;background-color: rgb(255, 255, 255);&quot;&gt;gadget2:&lt;/span&gt;&lt;/div&gt;&lt;div style=&quot;border-color: var(--border-color); font-family: Menlo, Monaco, &amp;quot;Courier New&amp;quot;, monospace; line-height: 18px;&quot;&gt;&lt;span style=&quot;background-color: rgb(255, 255, 255);&quot;&gt;//malicious codes &amp;amp; behaviors&lt;/span&gt;&lt;/div&gt;&lt;div style=&quot;border-color: var(--border-color); line-height: 18px;&quot;&gt;&lt;div style=&quot;font-family: Menlo, Monaco, &amp;quot;Courier New&amp;quot;, monospace; line-height: 18px;&quot;&gt;&lt;br&gt;&lt;/div&gt;&lt;/div&gt;&lt;/blockquote&gt;" style="rounded=1;whiteSpace=wrap;html=1;align=left;" vertex="1" parent="1">
          <mxGeometry x="200" y="470" width="260" height="80" as="geometry" />
        </mxCell>
        <mxCell id="nyXX6pM8MfZBQfrMpn8g-13" value="" style="edgeStyle=orthogonalEdgeStyle;rounded=0;orthogonalLoop=1;jettySize=auto;html=1;exitX=1;exitY=0.75;exitDx=0;exitDy=0;entryX=0;entryY=0.25;entryDx=0;entryDy=0;shape=link;" edge="1" parent="1" source="nyXX6pM8MfZBQfrMpn8g-1" target="nyXX6pM8MfZBQfrMpn8g-10">
          <mxGeometry relative="1" as="geometry">
            <mxPoint x="120" y="543.02" as="sourcePoint" />
            <mxPoint x="200" y="303" as="targetPoint" />
          </mxGeometry>
        </mxCell>
        <mxCell id="nyXX6pM8MfZBQfrMpn8g-10" value="Illegal Return Route" style="text;html=1;strokeColor=default;fillColor=none;align=center;verticalAlign=middle;whiteSpace=wrap;rounded=0;" vertex="1" parent="1">
          <mxGeometry x="10" y="310" width="150" height="30" as="geometry" />
        </mxCell>
        <mxCell id="nyXX6pM8MfZBQfrMpn8g-16" value="&lt;blockquote style=&quot;margin: 0 0 0 40px; border: none; padding: 0px;&quot;&gt;&lt;div style=&quot;border-color: var(--border-color); font-family: Menlo, Monaco, &amp;quot;Courier New&amp;quot;, monospace; line-height: 18px;&quot;&gt;&lt;span style=&quot;background-color: rgb(255, 255, 255);&quot;&gt;void process_input(char* buffer, char* input){&lt;/span&gt;&lt;/div&gt;&lt;div style=&quot;border-color: var(--border-color); font-family: Menlo, Monaco, &amp;quot;Courier New&amp;quot;, monospace; line-height: 18px;&quot;&gt;&lt;span style=&quot;background-color: rgb(255, 255, 255);&quot;&gt;&lt;span style=&quot;white-space: pre;&quot;&gt;&#x9;function(buffer, input);&lt;/span&gt;&lt;br&gt;&lt;/span&gt;&lt;/div&gt;&lt;div style=&quot;border-color: var(--border-color); font-family: Menlo, Monaco, &amp;quot;Courier New&amp;quot;, monospace; line-height: 18px;&quot;&gt;&lt;span style=&quot;background-color: rgb(255, 255, 255);&quot;&gt;&lt;span style=&quot;white-space: pre;&quot;&gt;&lt;span style=&quot;white-space: pre;&quot;&gt;&#x9;&lt;font color=&quot;#ff3333&quot;&gt;//legal return position&lt;/font&gt;&lt;/span&gt;&lt;br&gt;&lt;/span&gt;&lt;/span&gt;&lt;/div&gt;&lt;div style=&quot;border-color: var(--border-color); font-family: Menlo, Monaco, &amp;quot;Courier New&amp;quot;, monospace; line-height: 18px;&quot;&gt;&lt;span style=&quot;background-color: rgb(255, 255, 255);&quot;&gt;&lt;span style=&quot;white-space: pre;&quot;&gt;&lt;span style=&quot;white-space: pre;&quot;&gt;&#x9;check_validity(buffer);&lt;/span&gt;&lt;br&gt;&lt;/span&gt;&lt;/span&gt;&lt;/div&gt;&lt;div style=&quot;border-color: var(--border-color); font-family: Menlo, Monaco, &amp;quot;Courier New&amp;quot;, monospace; line-height: 18px;&quot;&gt;&lt;span style=&quot;background-color: rgb(255, 255, 255);&quot;&gt;}&lt;/span&gt;&lt;/div&gt;&lt;/blockquote&gt;" style="rounded=1;whiteSpace=wrap;html=1;align=left;" vertex="1" parent="1">
          <mxGeometry x="140" y="700" width="430" height="100" as="geometry" />
        </mxCell>
        <mxCell id="nyXX6pM8MfZBQfrMpn8g-18" value="" style="edgeStyle=orthogonalEdgeStyle;rounded=0;orthogonalLoop=1;jettySize=auto;html=1;exitX=0.5;exitY=1;exitDx=0;exitDy=0;entryX=0;entryY=0.5;entryDx=0;entryDy=0;" edge="1" parent="1" source="nyXX6pM8MfZBQfrMpn8g-1" target="nyXX6pM8MfZBQfrMpn8g-17">
          <mxGeometry relative="1" as="geometry">
            <mxPoint x="140" y="750" as="targetPoint" />
            <mxPoint x="120" y="610" as="sourcePoint" />
            <Array as="points">
              <mxPoint x="-90" y="615" />
              <mxPoint x="-90" y="715" />
            </Array>
          </mxGeometry>
        </mxCell>
        <mxCell id="nyXX6pM8MfZBQfrMpn8g-17" value="Legal Return Route" style="text;html=1;strokeColor=default;fillColor=none;align=center;verticalAlign=middle;whiteSpace=wrap;rounded=0;" vertex="1" parent="1">
          <mxGeometry x="-70" y="700" width="150" height="30" as="geometry" />
        </mxCell>
        <mxCell id="nyXX6pM8MfZBQfrMpn8g-19" value="" style="rounded=0;whiteSpace=wrap;html=1;" vertex="1" parent="1">
          <mxGeometry x="-770" y="190" width="270" height="430" as="geometry" />
        </mxCell>
        <mxCell id="nyXX6pM8MfZBQfrMpn8g-26" style="edgeStyle=orthogonalEdgeStyle;rounded=0;orthogonalLoop=1;jettySize=auto;html=1;exitX=0.25;exitY=1;exitDx=0;exitDy=0;" edge="1" parent="1" source="nyXX6pM8MfZBQfrMpn8g-22">
          <mxGeometry relative="1" as="geometry">
            <mxPoint x="-820" y="420" as="targetPoint" />
          </mxGeometry>
        </mxCell>
        <mxCell id="nyXX6pM8MfZBQfrMpn8g-22" value="Memory High Address" style="text;html=1;strokeColor=none;fillColor=none;align=center;verticalAlign=middle;whiteSpace=wrap;rounded=0;" vertex="1" parent="1">
          <mxGeometry x="-880" y="160" width="240" height="30" as="geometry" />
        </mxCell>
        <mxCell id="nyXX6pM8MfZBQfrMpn8g-27" value="Memory Low Address" style="text;html=1;strokeColor=none;fillColor=none;align=center;verticalAlign=middle;whiteSpace=wrap;rounded=0;" vertex="1" parent="1">
          <mxGeometry x="-880" y="620" width="240" height="30" as="geometry" />
        </mxCell>
        <mxCell id="nyXX6pM8MfZBQfrMpn8g-29" value="" style="endArrow=none;html=1;rounded=0;" edge="1" parent="1">
          <mxGeometry width="50" height="50" relative="1" as="geometry">
            <mxPoint x="-770" y="230" as="sourcePoint" />
            <mxPoint x="-500" y="230" as="targetPoint" />
          </mxGeometry>
        </mxCell>
        <mxCell id="nyXX6pM8MfZBQfrMpn8g-30" value="" style="endArrow=none;html=1;rounded=0;" edge="1" parent="1">
          <mxGeometry width="50" height="50" relative="1" as="geometry">
            <mxPoint x="-770" y="270" as="sourcePoint" />
            <mxPoint x="-500" y="270" as="targetPoint" />
          </mxGeometry>
        </mxCell>
        <mxCell id="nyXX6pM8MfZBQfrMpn8g-32" value="buffer[63]" style="text;html=1;strokeColor=none;fillColor=none;align=center;verticalAlign=middle;whiteSpace=wrap;rounded=0;" vertex="1" parent="1">
          <mxGeometry x="-665" y="310" width="60" height="30" as="geometry" />
        </mxCell>
        <mxCell id="nyXX6pM8MfZBQfrMpn8g-33" value="Return Address for process_input()" style="text;html=1;strokeColor=none;fillColor=none;align=center;verticalAlign=middle;whiteSpace=wrap;rounded=0;" vertex="1" parent="1">
          <mxGeometry x="-747.5" y="200" width="225" height="30" as="geometry" />
        </mxCell>
        <mxCell id="nyXX6pM8MfZBQfrMpn8g-34" value="Stack Space for process_input()" style="text;html=1;strokeColor=none;fillColor=none;align=center;verticalAlign=middle;whiteSpace=wrap;rounded=0;" vertex="1" parent="1">
          <mxGeometry x="-740" y="240" width="225" height="30" as="geometry" />
        </mxCell>
        <mxCell id="nyXX6pM8MfZBQfrMpn8g-35" value="" style="endArrow=none;html=1;rounded=0;" edge="1" parent="1">
          <mxGeometry width="50" height="50" relative="1" as="geometry">
            <mxPoint x="-770" y="310" as="sourcePoint" />
            <mxPoint x="-500" y="310" as="targetPoint" />
          </mxGeometry>
        </mxCell>
        <mxCell id="nyXX6pM8MfZBQfrMpn8g-36" value="&lt;font color=&quot;#ff0000&quot;&gt;Return Address for function()&lt;/font&gt;" style="text;html=1;strokeColor=none;fillColor=none;align=center;verticalAlign=middle;whiteSpace=wrap;rounded=0;" vertex="1" parent="1">
          <mxGeometry x="-747.5" y="280" width="225" height="30" as="geometry" />
        </mxCell>
        <mxCell id="nyXX6pM8MfZBQfrMpn8g-37" value="" style="endArrow=none;html=1;rounded=0;" edge="1" parent="1">
          <mxGeometry width="50" height="50" relative="1" as="geometry">
            <mxPoint x="-770" y="460" as="sourcePoint" />
            <mxPoint x="-500" y="460" as="targetPoint" />
          </mxGeometry>
        </mxCell>
        <mxCell id="nyXX6pM8MfZBQfrMpn8g-40" value="buffer[0]" style="text;html=1;strokeColor=none;fillColor=none;align=center;verticalAlign=middle;whiteSpace=wrap;rounded=0;" vertex="1" parent="1">
          <mxGeometry x="-665" y="430" width="60" height="30" as="geometry" />
        </mxCell>
        <mxCell id="nyXX6pM8MfZBQfrMpn8g-41" value="" style="endArrow=none;html=1;rounded=0;" edge="1" parent="1">
          <mxGeometry width="50" height="50" relative="1" as="geometry">
            <mxPoint x="-770" y="500" as="sourcePoint" />
            <mxPoint x="-500" y="500" as="targetPoint" />
          </mxGeometry>
        </mxCell>
        <mxCell id="nyXX6pM8MfZBQfrMpn8g-42" value="process_input()" style="text;html=1;strokeColor=none;fillColor=none;align=center;verticalAlign=middle;whiteSpace=wrap;rounded=0;" vertex="1" parent="1">
          <mxGeometry x="-750" y="510" width="225" height="30" as="geometry" />
        </mxCell>
        <mxCell id="nyXX6pM8MfZBQfrMpn8g-43" value="" style="endArrow=none;dashed=1;html=1;rounded=0;" edge="1" parent="1">
          <mxGeometry width="50" height="50" relative="1" as="geometry">
            <mxPoint x="-850" y="460" as="sourcePoint" />
            <mxPoint x="-500" y="460" as="targetPoint" />
          </mxGeometry>
        </mxCell>
        <mxCell id="nyXX6pM8MfZBQfrMpn8g-44" value="Code Section" style="text;html=1;strokeColor=none;fillColor=none;align=center;verticalAlign=middle;whiteSpace=wrap;rounded=0;" vertex="1" parent="1">
          <mxGeometry x="-880" y="460" width="120" height="30" as="geometry" />
        </mxCell>
        <mxCell id="nyXX6pM8MfZBQfrMpn8g-45" value="Stack Section" style="text;html=1;strokeColor=none;fillColor=none;align=center;verticalAlign=middle;whiteSpace=wrap;rounded=0;" vertex="1" parent="1">
          <mxGeometry x="-880" y="430" width="120" height="30" as="geometry" />
        </mxCell>
        <mxCell id="nyXX6pM8MfZBQfrMpn8g-47" value="" style="endArrow=none;html=1;rounded=0;" edge="1" parent="1">
          <mxGeometry width="50" height="50" relative="1" as="geometry">
            <mxPoint x="-770" y="540" as="sourcePoint" />
            <mxPoint x="-500" y="540" as="targetPoint" />
          </mxGeometry>
        </mxCell>
        <mxCell id="nyXX6pM8MfZBQfrMpn8g-63" style="edgeStyle=orthogonalEdgeStyle;rounded=0;orthogonalLoop=1;jettySize=auto;html=1;exitX=1;exitY=0.5;exitDx=0;exitDy=0;entryX=1;entryY=0.5;entryDx=0;entryDy=0;" edge="1" parent="1" source="nyXX6pM8MfZBQfrMpn8g-48" target="nyXX6pM8MfZBQfrMpn8g-50">
          <mxGeometry relative="1" as="geometry">
            <Array as="points">
              <mxPoint x="-450" y="565" />
              <mxPoint x="-450" y="485" />
            </Array>
          </mxGeometry>
        </mxCell>
        <mxCell id="nyXX6pM8MfZBQfrMpn8g-48" value="function()" style="text;html=1;strokeColor=none;fillColor=none;align=center;verticalAlign=middle;whiteSpace=wrap;rounded=0;" vertex="1" parent="1">
          <mxGeometry x="-750" y="550" width="225" height="30" as="geometry" />
        </mxCell>
        <mxCell id="nyXX6pM8MfZBQfrMpn8g-49" value="" style="endArrow=none;html=1;rounded=0;" edge="1" parent="1">
          <mxGeometry width="50" height="50" relative="1" as="geometry">
            <mxPoint x="-772.5" y="580" as="sourcePoint" />
            <mxPoint x="-502.5" y="580" as="targetPoint" />
          </mxGeometry>
        </mxCell>
        <mxCell id="nyXX6pM8MfZBQfrMpn8g-64" style="edgeStyle=orthogonalEdgeStyle;rounded=0;orthogonalLoop=1;jettySize=auto;html=1;exitX=1;exitY=0.25;exitDx=0;exitDy=0;entryX=1;entryY=0.25;entryDx=0;entryDy=0;" edge="1" parent="1" source="nyXX6pM8MfZBQfrMpn8g-50" target="nyXX6pM8MfZBQfrMpn8g-51">
          <mxGeometry relative="1" as="geometry">
            <Array as="points">
              <mxPoint x="-380" y="478" />
              <mxPoint x="-380" y="598" />
            </Array>
          </mxGeometry>
        </mxCell>
        <mxCell id="nyXX6pM8MfZBQfrMpn8g-50" value="gadget1" style="text;html=1;strokeColor=none;fillColor=none;align=center;verticalAlign=middle;whiteSpace=wrap;rounded=0;" vertex="1" parent="1">
          <mxGeometry x="-747.5" y="470" width="225" height="30" as="geometry" />
        </mxCell>
        <mxCell id="nyXX6pM8MfZBQfrMpn8g-51" value="gadget2" style="text;html=1;strokeColor=none;fillColor=none;align=center;verticalAlign=middle;whiteSpace=wrap;rounded=0;" vertex="1" parent="1">
          <mxGeometry x="-750" y="590" width="225" height="30" as="geometry" />
        </mxCell>
        <mxCell id="nyXX6pM8MfZBQfrMpn8g-52" value="" style="endArrow=classic;html=1;rounded=0;shape=flexArrow;strokeColor=#B5739D;fillColor=#e32400;entryX=1;entryY=0;entryDx=0;entryDy=0;" edge="1" parent="1" target="nyXX6pM8MfZBQfrMpn8g-36">
          <mxGeometry width="50" height="50" relative="1" as="geometry">
            <mxPoint x="-522" y="430" as="sourcePoint" />
            <mxPoint x="-520" y="280" as="targetPoint" />
          </mxGeometry>
        </mxCell>
        <mxCell id="nyXX6pM8MfZBQfrMpn8g-54" value="overflows" style="text;html=1;strokeColor=none;fillColor=none;align=center;verticalAlign=middle;whiteSpace=wrap;rounded=0;fontStyle=1" vertex="1" parent="1">
          <mxGeometry x="-590" y="360" width="60" height="30" as="geometry" />
        </mxCell>
      </root>
    </mxGraphModel>
  </diagram>
</mxfile>
